# xmcd
#
# Track frame offsets: 
#        150
#        12405
#        28380
#        52227
#        68277
#        91749
#        106484
#        121409
#        136446
#        164000
#        174348
#        197673
#        204833
#        223444
#
# Disc length: 3207 seconds
#
# Revision: 0
# Processed by: cddbd v1.5.2PL0 Copyright (c) Steve Scherf et al.
# Submitted via: ExactAudioCopyFreeDBPlugin 1.0
#
DISCID=cd0c850e
DTITLE=Loop - Fresh Savage
DYEAR=2011
DGENRE=Blues
TTITLE0=Betty
TTITLE1=Hey, You Want Me
TTITLE2=Telephone
TTITLE3=Broken Man
TTITLE4=I Don't Know
TTITLE5=Stuck in a Hole
TTITLE6=Witch
TTITLE7=Years and Years
TTITLE8=You Can't Lose What You Never Had
TTITLE9=By and By
TTITLE10=Loose Women Blues
TTITLE11=Morning
TTITLE12=Girl With the World in Her Eyes
TTITLE13=G Boogie
EXTD=
EXTT0=
EXTT1=
EXTT2=
EXTT3=
EXTT4=
EXTT5=
EXTT6=
EXTT7=
EXTT8=
EXTT9=
EXTT10=
EXTT11=
EXTT12=
EXTT13=
PLAYORDER=
